<?xml version="1.0" standalone="no"?>
<!DOCTYPE svg PUBLIC "-//W3C//DTD SVG 20010904//EN"
 "http://www.w3.org/TR/2001/REC-SVG-20010904/DTD/svg10.dtd">
<svg version="1.0" xmlns="http://www.w3.org/2000/svg"
 width="220.000000pt" height="220.000000pt" viewBox="0 0 220.000000 220.000000"
 preserveAspectRatio="xMidYMid meet">
<metadata>
Created by potrace 1.14, written by Peter Selinger 2001-2017
</metadata>
<g transform="translate(0.000000,220.000000) scale(0.100000,-0.100000)"
fill="#000000" stroke="none">
<path d="M0 1100 l0 -1100 1100 0 1100 0 0 1100 0 1100 -1100 0 -1100 0 0
-1100z m674 46 l171 -268 3 271 2 271 40 0 40 0 -2 -327 -3 -328 -41 -3 c-29
-2 -44 2 -56 15 -8 10 -89 133 -178 273 -90 140 -166 258 -169 262 -3 4 -6
-118 -6 -270 l0 -277 -37 -3 -38 -3 0 331 0 331 51 -3 52 -3 171 -269z m652
34 c57 -129 108 -248 115 -265 l11 -30 18 45 c10 25 63 144 118 265 l100 220
51 3 51 3 -2 -328 -3 -328 -37 -3 -38 -3 0 273 0 273 -39 -90 c-132 -304 -201
-450 -215 -453 -9 -2 -23 12 -34 35 -20 38 -214 474 -225 503 -3 8 -6 -110 -6
-262 l-1 -278 -35 0 -35 0 0 331 0 330 51 -3 52 -3 103 -235z"/>
</g>
</svg>
